<svg id="eMbaYRwrF4p1" xmlns="http://www.w3.org/2000/svg" xmlns:xlink="http://www.w3.org/1999/xlink" viewBox="0 0 2914 502" shape-rendering="geometricPrecision" text-rendering="geometricPrecision" style="background-color:transparent"><path d="M0,483.742c0-3.685,3.07993-6.45,9.23984-8.292c6.15986-1.843,16.93976-3.686,30.79956-5.529c32.3395-3.686,55.4391-9.214,69.2986-17.507c13.86-8.293,21.56-21.192,21.56-38.699v-313.281c0-23.9566-4.62-41.4635-15.4-52.5205s-30.7993-18.4282-60.0589-21.1925c-27.7195-2.7642-41.5793-8.2927-41.5793-14.7426c0-5.52848,12.3198-8.29273,35.4194-8.29273c35.4195,0,58.5188-.00002,69.2988.9214h52.359c12.32,0,26.18.00001,43.12-.9214s29.259-.92146,36.959-1.84287C272.576,-0.000028,291.056,0,307.995,0c95.479,0,170.938,11.9784,227.917,35.0137c56.979,23.0354,86.239,55.2849,86.239,96.7483c0,31.328-10.78,59.892-30.8,84.77-20.02,25.8-50.819,45.149-92.399,60.814-41.579,14.742-92.398,22.113-153.997,22.113-16.94,0-29.26-1.842-40.04-4.607-10.779-2.764-15.399-6.45-15.399-9.214c0-1.843,1.54-4.607,6.159-6.45c4.62-1.842,9.24-3.685,12.32-3.685s9.24,0,18.48.921c10.78.922,23.1.922,38.499.922c49.28,0,86.239-11.979,110.879-35.936c26.179-23.956,38.499-58.97,38.499-103.198c0-37.778-18.48-67.2632-56.979-86.6128-36.959-19.3497-87.779-29.4853-150.918-29.4853-52.359,0-80.079,10.1356-80.079,31.3281v351.98c0,18.428,6.16,33.171,18.48,43.306c12.32,10.136,33.88,17.507,63.139,20.272c13.86,1.842,24.64,2.764,30.8,5.528c6.16,1.843,9.24,4.607,9.24,8.293c0,5.528-12.32,8.293-35.42,8.293-26.179,0-50.819-.922-72.379-2.765-15.399-1.843-30.799-1.843-49.279-1.843-15.4,0-29.259,0-44.659.922-15.4.921-26.18.921-32.34.921-32.3392,1.843-60.0588,2.765-83.1585,2.765C12.3198,491.114,0,488.349,0,483.742Z" fill="#292121"/><path d="M642.17,287.482L825.428,39.6217c1.54-1.8428,4.62-2.7643,7.699-2.7643h1.54c3.08,0,6.16,0,7.7,2.7643L1024.08,287.482c1.54,1.843,1.54,4.607-6.16,4.607h-15.4c-4.615,0-7.695-1.843-7.695-2.764l-47.739-65.421h-227.917L671.43,289.325c-1.54,1.843-4.62,2.764-7.7,2.764h-16.94c-4.62,0-6.16-1.843-4.62-4.607Zm294.136-78.32L834.667,65.4212h-1.54L729.949,209.162h206.357Z" fill="#292121"/><path d="M1104.16,46.9928c0-2.7642,3.08-4.6071,7.7-4.6071h238.7c4.62,0,7.7,1.8429,7.7,4.6071v6.4499c0,2.7643-3.08,4.6071-7.7,4.6071h-218.68v98.5912h189.42c4.62,0,7.7,1.843,7.7,4.607v6.45c0,2.764-3.08,4.607-7.7,4.607h-189.42v104.12h218.68c4.62,0,7.7,1.843,7.7,4.607v5.528c0,2.765-3.08,4.607-7.7,4.607h-238.7c-4.62,0-7.7-1.842-7.7-4.607v-239.5672Z" fill="#292121"/><path d="M1971.17,53.442c0-2.7642,4.62-4.607,9.24-4.607h10.78l286.44,222.982v-214.6894c0-2.7642,3.08-4.607,7.7-4.607h12.31c4.62,0,7.7,1.8428,7.7,4.607v244.1744c0,2.764-4.62,4.607-9.23,4.607h-7.7c0,0-6.16-.921-287.98-224.8246v216.5326c0,2.764-3.08,4.607-7.7,4.607h-10.78c-4.62,0-7.7-1.843-7.7-4.607v-244.175h-3.08Z" fill="#292121"/><path d="M2413.14,57.1276c0-2.7643,3.08-4.6071,7.7-4.6071h13.86c4.62,0,7.7,1.8428,7.7,4.6071v240.4894c0,2.764-4.62,4.607-7.7,4.607h-12.32c-4.62,0-7.7-1.843-7.7-4.607l-1.54-240.4894Z" fill="#292121"/><path d="M2530.18,297.616L2713.44,48.8346c1.54-1.8428,4.62-2.7643,7.7-2.7643h1.54c3.08,0,6.16,0,7.7,2.7643L2912.1,296.695c1.54,1.843,1.54,4.607-6.16,4.607h-15.4c-4.62,0-7.7-1.843-7.7-2.764l-47.74-65.421h-227.92l-47.74,65.421c-1.54,1.843-4.62,2.764-7.7,2.764h-16.94c-4.62.921-6.16-.921-4.62-3.686Zm295.68-78.32L2724.22,75.5555h-1.54L2619.5,219.296h206.36Z" fill="#292121"/><g id="eMbaYRwrF4p8" transform="matrix(.984808 0.173648-.173648 0.984808 54.910706-284.866521)"><path d="M1777.13,248.781l-240.23-.921c-3.08,0-6.16-1.843-6.16-3.686v-146.5049c0-.9214,1.54-1.8428,1.54-2.7642c1.54-.9214,3.08-.9215,4.62-.9215l240.23.9215c3.08,0,6.16,1.8427,6.16,3.6856v146.5045c0,.922-1.54,1.843-1.54,2.765-1.54,0-3.08.921-4.62.921Zm-234.07-9.214l226.37.921v-138.212l-226.37-.921v138.212Z" fill="#a11e21"/><g transform="translate(.000001 0.000001)"><path d="M1655.47,316.045c-1.54,0-1.54,0-3.08,0l-166.31-41.464c-1.54-.921-3.08-.921-3.08-1.843l-69.3-100.434c0-.921,0-1.843,0-2.764L1483,70.0271c0-.9214,1.54-1.8428,3.08-1.8428l167.85-41.4636c1.54,0,3.08,0,4.62,0l166.32,41.4636c1.54.9214,3.08.9214,3.08,1.8428l69.3,100.4339c0,.922,0,1.843,0,2.764l-69.3,99.513c-1.54.922-1.54,1.843-3.08,1.843l-169.4,41.464ZM1493.78,267.21l161.69,40.542l161.7-39.621l67.76-96.748-66.22-96.7488-161.7-40.5422-161.69,39.6208-67.76,96.7482l66.22,96.749Z" fill="#7a1b1f"/></g><path d="M1712.45,294.852c-1.54,0-1.54,0,0,0l-230.99-50.677c-3.08-.922-4.62-1.843-4.62-3.686l-13.86-118.862c0-.922,1.54-2.765,1.54-2.765l138.6-70.9484c1.54-.9214,4.62-.9214,6.16-.9214l223.29,50.6777c3.08.9215,4.62,1.8429,4.62,3.6861l13.86,118.862c0,.921,0,2.764-1.54,3.686l-130.9,70.948c-3.08,0-4.62,0-6.16,0Zm-223.29-57.127l221.75,48.835l124.74-67.263-12.32-114.256-215.59-48.8347L1475.3,124.391l13.86,113.334Z" fill="#7a1b1f"/></g><path d="M677.589,496.643c-1.54.921-3.08.922-4.62.922h-24.639c-1.54,0-3.08-.001-4.62-.922s-1.54-1.843-1.54-2.764v-95.827c0-.922,0-1.843,1.54-2.764c1.54-.922,3.08-.922,4.62-.922h24.639c1.54,0,3.08,0,4.62.922c1.54.921,1.54,1.842,1.54,2.764v95.827c0,.921,0,1.843-1.54,2.764Z" fill="#292121"/><path d="M890.106,395.288c1.54-.922,3.08-.922,4.62-.922h24.64c1.54,0,3.08,0,4.62.922c1.54.921,1.54,1.842,1.54,2.764v95.827c0,1.843,0,2.764-1.54,3.686-1.54.921-3.08.921-4.62.921s-3.08,0-4.62-.921c-1.54-.922-4.62-1.843-6.16-3.686l-98.559-58.971v58.971c0,.921,0,1.843-1.54,2.764s-3.08.922-4.62.922h-24.639c-1.54,0-3.08-.001-4.62-.922s-1.54-1.843-1.54-2.764v-95.827c0-3.686,1.54-5.529,6.16-5.529c1.54,0,3.08,0,4.62.922c1.54.921,4.62,1.843,7.7,3.686l98.558,58.97v-58.97c-1.54-.922,0-1.843,0-1.843Z" fill="#292121"/><path d="M1134.96,395.288c1.54-.922,3.08-.922,4.62-.922h24.64c1.54,0,3.08,0,4.62.922c1.54.921,1.54,1.842,1.54,2.764v95.827c0,1.843,0,2.764-1.54,3.686-1.54.921-3.08.921-4.62.921s-3.08,0-4.62-.921c-1.54-.922-4.62-1.843-6.16-3.686l-98.56-58.971v58.971c0,.921,0,1.843-1.54,2.764s-3.08.922-4.62.922h-24.64c-1.54,0-3.08-.001-4.62-.922s-1.54-1.843-1.54-2.764v-95.827c0-3.686,1.54-5.529,6.16-5.529c1.54,0,3.08,0,4.62.922c1.54.921,4.62,1.843,7.7,3.686l98.56,58.97v-58.97c-1.54-.922-1.54-1.843,0-1.843Z" fill="#292121"/><path d="M1265.86,418.323c7.7-8.293,18.48-14.743,33.88-19.35c13.86-4.607,30.8-7.371,47.74-7.371s33.88,1.842,47.74,6.449s26.18,11.057,33.88,19.35s12.32,17.507,12.32,27.643c0,10.135-4.62,19.349-12.32,27.642s-18.48,14.743-33.88,19.35-30.8,6.45-47.74,6.45-33.88-1.843-47.74-6.45-26.18-11.057-33.88-18.429c-7.7-7.371-12.32-17.507-12.32-27.642c0-10.136,3.08-19.35,12.32-27.642Zm33.88,45.149c4.62,5.528,10.78,9.214,20.02,11.978c7.7,2.765,16.94,4.607,29.26,4.607s20.02-1.842,29.26-4.607c7.7-2.764,15.4-7.371,20.02-11.978c4.62-5.529,7.7-11.057,7.7-17.507s-3.08-12.9-7.7-17.507c-4.62-5.528-10.78-9.214-20.02-11.978-7.7-2.765-18.48-4.607-29.26-4.607s-20.02,1.842-29.26,4.607c-9.24,2.764-15.4,7.371-20.02,11.978-4.62,5.529-7.7,11.057-7.7,17.507s3.08,11.978,7.7,17.507Z" fill="#292121"/><path d="M1646.23,398.973c1.54-1.843,3.08-2.764,4.62-3.685c1.54-.922,3.08-.922,6.16-.922h21.56c3.08,0,6.16.922,6.16,1.843s0,.921-1.54,2.764l-81.61,93.984c-1.54,2.765-4.62,4.608-6.16,5.529s-3.08,1.843-4.62,1.843-3.08-.922-4.62-1.843-3.08-2.764-6.16-5.529l-81.62-93.984c-1.54-.921-1.54-1.843-1.54-2.764s1.54-1.843,6.16-1.843h24.64c3.08,0,4.62,0,6.16.922c1.54.921,3.08,1.842,4.62,3.685l50.82,62.656l56.97-62.656Z" fill="#292121"/><path d="M1749.41,492.957c-1.54,1.843-3.08,2.764-4.62,3.686-1.54.921-3.08.921-6.16.921h-21.56c-3.08,0-6.16-.921-6.16-1.843c0-.921,0-.921,1.54-2.764l81.62-93.984c1.54-2.764,4.62-4.607,6.16-5.529c1.54-.921,3.08-1.842,4.62-1.842s3.08.921,4.62,1.842c1.54.922,3.08,2.765,6.16,5.529l81.62,93.984c1.54.921,1.54,1.843,1.54,2.764c0,.922-1.54,1.843-6.16,1.843h-24.64c-3.08,0-4.62,0-6.16-.921-1.54-.922-3.08-1.843-4.62-3.686l-50.82-62.656-56.98,62.656Z" fill="#292121"/><path d="M2078.97,412.794c-1.54.922-3.08.922-4.62.922h-44.66c-1.54,0-1.54,0-3.08,0c0,0,0,.921,0,1.843v78.32c0,.921,0,1.843-1.54,2.764s-3.08.922-4.62.922h-21.56c-1.54,0-3.08-.001-4.62-.922s-1.54-1.843-1.54-2.764v-78.32c0-.922,0-.922-1.54-1.843c0,0-1.54,0-3.08,0h-44.66c-1.54,0-3.08,0-4.62-.922-1.54-.921-1.54-1.842-1.54-2.764v-11.978c0-.922,0-1.843,1.54-2.764c1.54-.922,3.08-.922,4.62-.922h132.44c1.54,0,3.08,0,4.62.922c1.54.921,1.54,1.842,1.54,2.764v11.978c-1.54.922-1.54,1.843-3.08,2.764Z" fill="#292121"/><path d="M2189.85,496.643c-1.54.921-3.08.922-4.62.922h-24.64c-1.54,0-3.08-.001-4.62-.922s-1.54-1.843-1.54-2.764v-95.827c0-.922,0-1.843,1.54-2.764c1.54-.922,3.08-.922,4.62-.922h24.64c1.54,0,3.08,0,4.62.922c1.54.921,1.54,1.842,1.54,2.764v95.827c0,.921,0,1.843-1.54,2.764Z" fill="#292121"/><path d="M2286.86,418.323c7.7-8.293,18.48-14.743,33.88-19.35c13.86-4.607,30.8-7.371,47.74-7.371s33.88,1.842,47.74,6.449s26.18,11.057,33.88,19.35s12.32,17.507,12.32,27.643c0,10.135-4.62,19.349-12.32,27.642s-18.48,14.743-33.88,19.35-30.8,6.45-47.74,6.45-33.88-1.843-47.74-6.45-26.18-11.057-33.88-18.429c-7.7-7.371-12.32-17.507-12.32-27.642c0-10.136,4.62-19.35,12.32-27.642Zm32.34,45.149c4.62,5.528,10.78,9.214,20.02,11.978c7.7,2.765,16.94,4.607,29.26,4.607s20.02-1.842,29.26-4.607c7.7-2.764,15.4-7.371,20.02-11.978c4.62-5.529,7.7-11.057,7.7-17.507s-3.08-12.9-7.7-17.507c-4.62-5.528-10.78-9.214-20.02-11.978-7.7-2.765-18.48-4.607-29.26-4.607s-20.02,1.842-29.26,4.607c-7.7,2.764-15.4,7.371-20.02,11.978-4.62,5.529-7.7,11.057-7.7,17.507c1.54,6.45,3.08,11.978,7.7,17.507Z" fill="#292121"/><path d="M2665.7,395.288c1.54-.922,3.08-.922,4.62-.922h24.64c1.54,0,3.08,0,4.62.922c1.54.921,1.54,1.842,1.54,2.764v95.827c0,1.843,0,2.764-1.54,3.686-1.54.921-3.08.921-4.62.921s-3.08,0-4.62-.921c-1.54-.922-4.62-1.843-6.16-3.686l-98.56-58.971v58.971c0,.921,0,1.843-1.54,2.764s-3.08.922-4.62.922h-24.64c-1.54,0-3.08-.001-4.62-.922s-1.54-1.843-1.54-2.764v-95.827c0-3.686,1.54-5.529,6.16-5.529c1.54,0,3.08,0,4.62.922c1.54.921,4.62,1.843,7.7,3.686l98.56,58.97v-58.97c-1.54-.922-1.54-1.843,0-1.843Z" fill="#292121"/><path d="M2791.98,469.922l1.54-.921c1.54,0,3.08,0,4.62.921c6.16,2.764,13.86,5.529,20.02,7.371c7.7,1.843,15.4,2.765,24.64,2.765s16.94-.922,24.64-2.765c4.62-1.842,7.7-4.607,7.7-8.292c0-2.765-1.54-4.607-3.08-5.529-1.54-1.843-6.16-2.764-10.78-3.686-4.62-.921-12.32-2.764-21.56-3.685-12.32-1.843-21.56-3.686-30.8-6.45s-13.86-5.528-18.48-9.214-6.16-9.214-6.16-14.743c0-6.45,3.08-11.978,7.7-16.585s12.32-8.293,21.56-11.057s20.02-3.686,33.88-3.686c21.56,0,43.12,3.686,60.06,11.979c1.54.921,3.08,1.842,3.08,2.764c0,.921,0,1.843-1.54,2.764l-10.78,10.136c-1.54.921-3.08,1.842-4.62,1.842s-3.08,0-4.62-.921c-6.16-2.764-13.86-4.607-20.02-6.45s-13.86-2.764-20.02-2.764c-7.7,0-13.86.921-18.48,2.764s-7.7,4.607-7.7,8.293c0,2.764,1.54,4.607,3.08,6.45s6.16,2.764,10.78,3.685c4.62.922,10.78,1.843,20.02,3.686c12.32,1.843,24.64,3.686,32.34,6.45s13.86,5.528,18.48,10.135c4.62,3.686,6.16,8.293,6.16,13.822c0,6.45-3.08,11.978-7.7,17.507-6.16,4.607-13.86,8.292-24.64,11.057-10.78,2.764-21.56,3.685-35.42,3.685s-24.64-.921-35.42-3.685c-10.78-1.843-20.02-5.529-29.26-9.215-1.54-.921-3.08-1.842-3.08-2.764c0-.921,0-1.843,1.54-2.764l10.78-9.214c1.54-2.765,1.54-3.686,1.54-3.686Z" fill="#292121"/>
<script><![CDATA[
!function(t,n){"object"==typeof exports&&"undefined"!=typeof module?module.exports=n():"function"==typeof __SVGATOR_DEFINE__&&__SVGATOR_DEFINE__.amd?__SVGATOR_DEFINE__(n):((t="undefined"!=typeof globalThis?globalThis:t||self).__SVGATOR_PLAYER__=t.__SVGATOR_PLAYER__||{},t.__SVGATOR_PLAYER__["5c7f360c"]=n())}(this,(function(){"use strict";function t(t,n){var e=Object.keys(t);if(Object.getOwnPropertySymbols){var r=Object.getOwnPropertySymbols(t);n&&(r=r.filter((function(n){return Object.getOwnPropertyDescriptor(t,n).enumerable}))),e.push.apply(e,r)}return e}function n(n){for(var e=1;e<arguments.length;e++){var r=null!=arguments[e]?arguments[e]:{};e%2?t(Object(r),!0).forEach((function(t){o(n,t,r[t])})):Object.getOwnPropertyDescriptors?Object.defineProperties(n,Object.getOwnPropertyDescriptors(r)):t(Object(r)).forEach((function(t){Object.defineProperty(n,t,Object.getOwnPropertyDescriptor(r,t))}))}return n}function e(t){return(e="function"==typeof Symbol&&"symbol"==typeof Symbol.iterator?function(t){return typeof t}:function(t){return t&&"function"==typeof Symbol&&t.constructor===Symbol&&t!==Symbol.prototype?"symbol":typeof t})(t)}function r(t,n){if(!(t instanceof n))throw new TypeError("Cannot call a class as a function")}function i(t,n){for(var e=0;e<n.length;e++){var r=n[e];r.enumerable=r.enumerable||!1,r.configurable=!0,"value"in r&&(r.writable=!0),Object.defineProperty(t,r.key,r)}}function u(t,n,e){return n&&i(t.prototype,n),e&&i(t,e),t}function o(t,n,e){return n in t?Object.defineProperty(t,n,{value:e,enumerable:!0,configurable:!0,writable:!0}):t[n]=e,t}function a(t){return(a=Object.setPrototypeOf?Object.getPrototypeOf:function(t){return t.__proto__||Object.getPrototypeOf(t)})(t)}function l(t,n){return(l=Object.setPrototypeOf||function(t,n){return t.__proto__=n,t})(t,n)}function s(){if("undefined"==typeof Reflect||!Reflect.construct)return!1;if(Reflect.construct.sham)return!1;if("function"==typeof Proxy)return!0;try{return Boolean.prototype.valueOf.call(Reflect.construct(Boolean,[],(function(){}))),!0}catch(t){return!1}}function f(t,n,e){return(f=s()?Reflect.construct:function(t,n,e){var r=[null];r.push.apply(r,n);var i=new(Function.bind.apply(t,r));return e&&l(i,e.prototype),i}).apply(null,arguments)}function c(t,n){if(n&&("object"==typeof n||"function"==typeof n))return n;if(void 0!==n)throw new TypeError("Derived constructors may only return object or undefined");return function(t){if(void 0===t)throw new ReferenceError("this hasn't been initialised - super() hasn't been called");return t}(t)}function h(t,n,e){return(h="undefined"!=typeof Reflect&&Reflect.get?Reflect.get:function(t,n,e){var r=function(t,n){for(;!Object.prototype.hasOwnProperty.call(t,n)&&null!==(t=a(t)););return t}(t,n);if(r){var i=Object.getOwnPropertyDescriptor(r,n);return i.get?i.get.call(e):i.value}})(t,n,e||t)}function v(t){return function(t){if(Array.isArray(t))return y(t)}(t)||function(t){if("undefined"!=typeof Symbol&&null!=t[Symbol.iterator]||null!=t["@@iterator"])return Array.from(t)}(t)||function(t,n){if(!t)return;if("string"==typeof t)return y(t,n);var e=Object.prototype.toString.call(t).slice(8,-1);"Object"===e&&t.constructor&&(e=t.constructor.name);if("Map"===e||"Set"===e)return Array.from(t);if("Arguments"===e||/^(?:Ui|I)nt(?:8|16|32)(?:Clamped)?Array$/.test(e))return y(t,n)}(t)||function(){throw new TypeError("Invalid attempt to spread non-iterable instance.\nIn order to be iterable, non-array objects must have a [Symbol.iterator]() method.")}()}function y(t,n){(null==n||n>t.length)&&(n=t.length);for(var e=0,r=new Array(n);e<n;e++)r[e]=t[e];return r}function g(t,n,e){if(Number.isInteger(t))return t;var r=Math.pow(10,n);return Math[e]((+t+Number.EPSILON)*r)/r}Number.isInteger||(Number.isInteger=function(t){return"number"==typeof t&&isFinite(t)&&Math.floor(t)===t}),Number.EPSILON||(Number.EPSILON=2220446049250313e-31);var p=d(Math.pow(10,-6));function d(t){var n=arguments.length>1&&void 0!==arguments[1]?arguments[1]:6;return g(t,n,"round")}function m(t,n){var e=arguments.length>2&&void 0!==arguments[2]?arguments[2]:p;return Math.abs(t-n)<e}d(Math.pow(10,-2)),d(Math.pow(10,-4));var b=Math.PI/180;function w(t){return t*b}function x(t){return t/b}function _(t){return t}function A(t,n,e){var r=1-e;return 3*e*r*(t*r+n*e)+e*e*e}function k(){var t=arguments.length>0&&void 0!==arguments[0]?arguments[0]:0,n=arguments.length>1&&void 0!==arguments[1]?arguments[1]:0,e=arguments.length>2&&void 0!==arguments[2]?arguments[2]:1,r=arguments.length>3&&void 0!==arguments[3]?arguments[3]:1;return t<0||t>1||e<0||e>1?null:m(t,n)&&m(e,r)?_:function(i){if(i<=0)return t>0?i*n/t:0===n&&e>0?i*r/e:0;if(i>=1)return e<1?1+(i-1)*(r-1)/(e-1):1===e&&t<1?1+(i-1)*(n-1)/(t-1):1;for(var u,o=0,a=1;o<a;){var l=A(t,e,u=(o+a)/2);if(m(i,l))break;l<i?o=u:a=u}return A(n,r,u)}}function S(){return 1}function O(t){return 1===t?1:0}function j(){var t=arguments.length>0&&void 0!==arguments[0]?arguments[0]:1,n=arguments.length>1&&void 0!==arguments[1]?arguments[1]:0;if(1===t){if(0===n)return O;if(1===n)return S}var e=1/t;return function(t){return t>=1?1:(t+=n*e)-t%e}}var M=Math.sin,E=Math.cos,P=Math.acos,I=Math.asin,R=Math.tan,F=Math.atan2,N=Math.sqrt,T=function(){function t(){var n=arguments.length>0&&void 0!==arguments[0]?arguments[0]:1,e=arguments.length>1&&void 0!==arguments[1]?arguments[1]:0,i=arguments.length>2&&void 0!==arguments[2]?arguments[2]:0,u=arguments.length>3&&void 0!==arguments[3]?arguments[3]:1,o=arguments.length>4&&void 0!==arguments[4]?arguments[4]:0,a=arguments.length>5&&void 0!==arguments[5]?arguments[5]:0;r(this,t),this.m=[n,e,i,u,o,a],this.i=null,this.w=null,this.s=null}return u(t,[{key:"determinant",get:function(){var t=this.m;return t[0]*t[3]-t[1]*t[2]}},{key:"isIdentity",get:function(){if(null===this.i){var t=this.m;this.i=1===t[0]&&0===t[1]&&0===t[2]&&1===t[3]&&0===t[4]&&0===t[5]}return this.i}},{key:"point",value:function(t,n){var e=this.m;return{x:e[0]*t+e[2]*n+e[4],y:e[1]*t+e[3]*n+e[5]}}},{key:"translateSelf",value:function(){var t=arguments.length>0&&void 0!==arguments[0]?arguments[0]:0,n=arguments.length>1&&void 0!==arguments[1]?arguments[1]:0;if(!t&&!n)return this;var e=this.m;return e[4]+=e[0]*t+e[2]*n,e[5]+=e[1]*t+e[3]*n,this.w=this.s=this.i=null,this}},{key:"rotateSelf",value:function(){var t=arguments.length>0&&void 0!==arguments[0]?arguments[0]:0;if(t%=360){t=w(t);var n=M(t),e=E(t),r=this.m,i=r[0],u=r[1];r[0]=i*e+r[2]*n,r[1]=u*e+r[3]*n,r[2]=r[2]*e-i*n,r[3]=r[3]*e-u*n,this.w=this.s=this.i=null}return this}},{key:"scaleSelf",value:function(){var t=arguments.length>0&&void 0!==arguments[0]?arguments[0]:1,n=arguments.length>1&&void 0!==arguments[1]?arguments[1]:1;if(1!==t||1!==n){var e=this.m;e[0]*=t,e[1]*=t,e[2]*=n,e[3]*=n,this.w=this.s=this.i=null}return this}},{key:"skewSelf",value:function(t,n){if(n%=360,(t%=360)||n){var e=this.m,r=e[0],i=e[1],u=e[2],o=e[3];t&&(t=R(w(t)),e[2]+=r*t,e[3]+=i*t),n&&(n=R(w(n)),e[0]+=u*n,e[1]+=o*n),this.w=this.s=this.i=null}return this}},{key:"resetSelf",value:function(){var t=arguments.length>0&&void 0!==arguments[0]?arguments[0]:1,n=arguments.length>1&&void 0!==arguments[1]?arguments[1]:0,e=arguments.length>2&&void 0!==arguments[2]?arguments[2]:0,r=arguments.length>3&&void 0!==arguments[3]?arguments[3]:1,i=arguments.length>4&&void 0!==arguments[4]?arguments[4]:0,u=arguments.length>5&&void 0!==arguments[5]?arguments[5]:0,o=this.m;return o[0]=t,o[1]=n,o[2]=e,o[3]=r,o[4]=i,o[5]=u,this.w=this.s=this.i=null,this}},{key:"recomposeSelf",value:function(){var t=arguments.length>0&&void 0!==arguments[0]?arguments[0]:null,n=arguments.length>1&&void 0!==arguments[1]?arguments[1]:null,e=arguments.length>2&&void 0!==arguments[2]?arguments[2]:null,r=arguments.length>3&&void 0!==arguments[3]?arguments[3]:null,i=arguments.length>4&&void 0!==arguments[4]?arguments[4]:null;return this.isIdentity||this.resetSelf(),t&&(t.x||t.y)&&this.translateSelf(t.x,t.y),n&&this.rotateSelf(n),e&&(e.x&&this.skewSelf(e.x,0),e.y&&this.skewSelf(0,e.y)),!r||1===r.x&&1===r.y||this.scaleSelf(r.x,r.y),i&&(i.x||i.y)&&this.translateSelf(i.x,i.y),this}},{key:"decompose",value:function(){var t=arguments.length>0&&void 0!==arguments[0]?arguments[0]:0,n=arguments.length>1&&void 0!==arguments[1]?arguments[1]:0,e=this.m,r=e[0]*e[0]+e[1]*e[1],i=[[e[0],e[1]],[e[2],e[3]]],u=N(r);if(0===u)return{origin:{x:d(e[4]),y:d(e[5])},translate:{x:d(t),y:d(n)},scale:{x:0,y:0},skew:{x:0,y:0},rotate:0};i[0][0]/=u,i[0][1]/=u;var o=e[0]*e[3]-e[1]*e[2]<0;o&&(u=-u);var a=i[0][0]*i[1][0]+i[0][1]*i[1][1];i[1][0]-=i[0][0]*a,i[1][1]-=i[0][1]*a;var l,s=N(i[1][0]*i[1][0]+i[1][1]*i[1][1]);return 0===s?{origin:{x:d(e[4]),y:d(e[5])},translate:{x:d(t),y:d(n)},scale:{x:d(u),y:0},skew:{x:0,y:0},rotate:0}:(i[1][0]/=s,i[1][1]/=s,a/=s,i[1][1]<0?(l=x(P(i[1][1])),i[0][1]<0&&(l=360-l)):l=x(I(i[0][1])),o&&(l=-l),a=x(F(a,N(i[0][0]*i[0][0]+i[0][1]*i[0][1]))),o&&(a=-a),{origin:{x:d(e[4]),y:d(e[5])},translate:{x:d(t),y:d(n)},scale:{x:d(u),y:d(s)},skew:{x:d(a),y:0},rotate:d(l)})}},{key:"multiply",value:function(t){return this.clone().multiplySelf(t)}},{key:"preMultiply",value:function(t){return t.multiply(this)}},{key:"multiplySelf",value:function(t){var n=q(this.m,t.m),e=n.a,r=n.b,i=n.c,u=n.d,o=n.tx,a=n.ty;return this.resetSelf(e,r,i,u,o,a),this}},{key:"preMultiplySelf",value:function(t){var n=q(t.m,this.m),e=n.a,r=n.b,i=n.c,u=n.d,o=n.tx,a=n.ty;return this.resetSelf(e,r,i,u,o,a),this}},{key:"clone",value:function(){var t=this.m;return new this.constructor(t[0],t[1],t[2],t[3],t[4],t[5])}},{key:"toString",value:function(){var t=arguments.length>0&&void 0!==arguments[0]?arguments[0]:" ";if(null===this.s){var n=this.m.map((function(t){return d(t)}));1===n[0]&&0===n[1]&&0===n[2]&&1===n[3]?this.s="translate("+n[4]+t+n[5]+")":this.s="matrix("+n.join(t)+")"}return this.s}}],[{key:"create",value:function(t){return t?Array.isArray(t)?f(this,v(t)):t instanceof this?t.clone():(new this).recomposeSelf(t.origin,t.rotate,t.skew,t.scale,t.translate):new this}}]),t}();function q(t,n){return{a:t[0]*n[0]+t[2]*n[1],b:t[1]*n[0]+t[3]*n[1],c:t[0]*n[2]+t[2]*n[3],d:t[1]*n[2]+t[3]*n[3],tx:t[0]*n[4]+t[2]*n[5]+t[4],ty:t[1]*n[4]+t[3]*n[5]+t[5]}}function B(t,n,e){return t>=.5?e:n}function D(t,n,e){return 0===t||n===e?n:t*(e-n)+n}function L(t,n,e){var r=D(t,n,e);return r<=0?0:r}function C(t,n,e){var r=D(t,n,e);return r<=0?0:r>=1?1:r}function V(t,n,e){return 0===t?n:1===t?e:{x:D(t,n.x,e.x),y:D(t,n.y,e.y)}}function G(t,n,e){var r=function(t,n,e){return Math.round(D(t,n,e))}(t,n,e);return r<=0?0:r>=255?255:r}function z(t,n,e){return 0===t?n:1===t?e:{r:G(t,n.r,e.r),g:G(t,n.g,e.g),b:G(t,n.b,e.b),a:D(t,null==n.a?1:n.a,null==e.a?1:e.a)}}function Y(t,n){for(var e=[],r=0;r<t;r++)e.push(n);return e}function $(t,n){if(--n<=0)return t;var e=(t=Object.assign([],t)).length;do{for(var r=0;r<e;r++)t.push(t[r])}while(--n>0);return t}var U,Q=function(){function t(n){r(this,t),this.list=n,this.length=n.length}return u(t,[{key:"setAttribute",value:function(t,n){for(var e=this.list,r=0;r<this.length;r++)e[r].setAttribute(t,n)}},{key:"removeAttribute",value:function(t){for(var n=this.list,e=0;e<this.length;e++)n[e].removeAttribute(t)}},{key:"style",value:function(t,n){for(var e=this.list,r=0;r<this.length;r++)e[r].style[t]=n}}]),t}(),H=/-./g,J=function(t,n){return n.toUpperCase()};function Z(t){return"function"==typeof t?t:B}function K(t){return t?"function"==typeof t?t:Array.isArray(t)?function(t){var n=arguments.length>1&&void 0!==arguments[1]?arguments[1]:_;if(!Array.isArray(t))return n;switch(t.length){case 1:return j(t[0])||n;case 2:return j(t[0],t[1])||n;case 4:return k(t[0],t[1],t[2],t[3])||n}return n}(t,null):function(t,n){var e=arguments.length>2&&void 0!==arguments[2]?arguments[2]:_;switch(t){case"linear":return _;case"steps":return j(n.steps||1,n.jump||0)||e;case"bezier":case"cubic-bezier":return k(n.x1||0,n.y1||0,n.x2||0,n.y2||0)||e}return e}(t.type,t.value,null):null}function W(t,n,e){var r=arguments.length>3&&void 0!==arguments[3]&&arguments[3],i=n.length-1;if(t<=n[0].t)return r?[0,0,n[0].v]:n[0].v;if(t>=n[i].t)return r?[i,1,n[i].v]:n[i].v;var u,o=n[0],a=null;for(u=1;u<=i;u++){if(!(t>n[u].t)){a=n[u];break}o=n[u]}return null==a?r?[i,1,n[i].v]:n[i].v:o.t===a.t?r?[u,1,a.v]:a.v:(t=(t-o.t)/(a.t-o.t),o.e&&(t=o.e(t)),r?[u,t,e(t,o.v,a.v)]:e(t,o.v,a.v))}function X(t,n){var e=arguments.length>2&&void 0!==arguments[2]?arguments[2]:null;return t&&t.length?"function"!=typeof n?null:("function"!=typeof e&&(e=null),function(r){var i=W(r,t,n);return null!=i&&e&&(i=e(i)),i}):null}function tt(t,n){return t.t-n.t}function nt(t,n,r,i,u){var o,a="@"===r[0],l="#"===r[0],s=U[r],f=B;switch(a?(o=r.substr(1),r=o.replace(H,J)):l&&(r=r.substr(1)),e(s)){case"function":if(f=s(i,u,W,K,r,a,n,t),l)return f;break;case"string":f=X(i,Z(s));break;case"object":if((f=X(i,Z(s.i),s.f))&&"function"==typeof s.u)return s.u(n,f,r,a,t)}return f?function(t,n,e){if(arguments.length>3&&void 0!==arguments[3]&&arguments[3])return t instanceof Q?function(r){return t.style(n,e(r))}:function(r){return t.style[n]=e(r)};if(Array.isArray(n)){var r=n.length;return function(i){var u=e(i);if(null==u)for(var o=0;o<r;o++)t[o].removeAttribute(n);else for(var a=0;a<r;a++)t[a].setAttribute(n,u)}}return function(r){var i=e(r);null==i?t.removeAttribute(n):t.setAttribute(n,i)}}(n,r,f,a):null}function et(t,n,r,i){if(!i||"object"!==e(i))return null;var u=null,o=null;return Array.isArray(i)?o=function(t){if(!t||!t.length)return null;for(var n=0;n<t.length;n++)t[n].e&&(t[n].e=K(t[n].e));return t.sort(tt)}(i):(o=i.keys,u=i.data||null),o?nt(t,n,r,o,u):null}function rt(t,n,e){if(!e)return null;var r=[];for(var i in e)if(e.hasOwnProperty(i)){var u=et(t,n,i,e[i]);u&&r.push(u)}return r.length?r:null}function it(t,n){if(!n.settings.duration||n.settings.duration<0)return null;var e,r,i,u,o,a=function(t,n){if(!n)return null;var e=[];if(Array.isArray(n))for(var r=n.length,i=0;i<r;i++){var u=n[i];if(2===u.length){var o=null;if("string"==typeof u[0])o=t.getElementById(u[0]);else if(Array.isArray(u[0])){o=[];for(var a=0;a<u[0].length;a++)if("string"==typeof u[0][a]){var l=t.getElementById(u[0][a]);l&&o.push(l)}o=o.length?1===o.length?o[0]:new Q(o):null}if(o){var s=rt(t,o,u[1]);s&&(e=e.concat(s))}}}else for(var f in n)if(n.hasOwnProperty(f)){var c=t.getElementById(f);if(c){var h=rt(t,c,n[f]);h&&(e=e.concat(h))}}return e.length?e:null}(t,n.elements);return a?(e=a,r=n.settings,i=r.duration,u=e.length,o=null,function(t,n){var a=r.iterations||1/0,l=(r.alternate&&a%2==0)^r.direction>0?i:0,s=t%i,f=1+(t-s)/i;n*=r.direction,r.alternate&&f%2==0&&(n=-n);var c=!1;if(f>a)s=l,c=!0,-1===r.fill&&(s=r.direction>0?0:i);else if(n<0&&(s=i-s),s===o)return!1;o=s;for(var h=0;h<u;h++)e[h](s);return c}):null}function ut(t,n){for(var e=n.querySelectorAll("svg"),r=0;r<e.length;r++)if(e[r].id===t.root&&!e[r].svgatorAnimation)return e[r].svgatorAnimation=!0,e[r];return null}function ot(t){var n=function(t){return t.shadowRoot};return document?Array.from(t.querySelectorAll(":not("+["a","area","audio","br","canvas","circle","datalist","embed","g","head","hr","iframe","img","input","link","object","path","polygon","rect","script","source","style","svg","title","track","video"].join()+")")).filter(n).map(n):[]}function at(t){var n=arguments.length>1&&void 0!==arguments[1]?arguments[1]:document,e=arguments.length>2&&void 0!==arguments[2]?arguments[2]:0,r=ut(t,n);if(r)return r;if(e>=20)return null;for(var i=ot(n),u=0;u<i.length;u++){var o=at(t,i[u],e+1);if(o)return o}return null}function lt(t,n){if(U=n,!t||!t.root||!Array.isArray(t.animations))return null;var e=at(t);if(!e)return null;var r=t.animations.map((function(t){return it(e,t)})).filter((function(t){return!!t}));return r.length?{svg:e,animations:r,animationSettings:t.animationSettings,options:t.options||void 0}:null}function st(t){var n=arguments.length>1&&void 0!==arguments[1]?arguments[1]:null,e=arguments.length>2&&void 0!==arguments[2]?arguments[2]:Number,r=arguments.length>3&&void 0!==arguments[3]?arguments[3]:"undefined"!=typeof BigInt&&BigInt,i="0x"+(t.replace(/[^0-9a-fA-F]+/g,"")||27);return n&&r&&e.isSafeInteger&&!e.isSafeInteger(+i)?e(r(i))%n+n:+i}function ft(t,n,e){return!t||!e||n>t.length?t:t.substring(0,n)+ft(t.substring(n+1),e,e)}function ct(t){var n=arguments.length>1&&void 0!==arguments[1]?arguments[1]:27;return!t||t%n?t%n:[0,1].includes(n)?n:ct(t/n,n)}function ht(t,n,e){if(t&&t.length){var r=st(e),i=ct(r)+5,u=ft(t,ct(r,5),i);return u=u.replace(/\x7c$/g,"==").replace(/\x2f$/g,"="),u=function(t,n,e){var r=+("0x"+t.substring(0,4));t=t.substring(4);for(var i=st(n,r)%r+e%27,u=[],o=0;o<t.length;o+=2)if("|"!==t[o]){var a=+("0x"+t[o]+t[o+1])-i;u.push(a)}else{var l=+("0x"+t.substring(o+1,o+1+4))-i;o+=3,u.push(l)}return String.fromCharCode.apply(String,u)}(u=(u=atob(u)).replace(/[\x41-\x5A]/g,""),n,r),u=JSON.parse(u)}}var vt=[{key:"alternate",def:!1},{key:"fill",def:1},{key:"iterations",def:0},{key:"direction",def:1},{key:"speed",def:1},{key:"fps",def:100}],yt=function(){function t(n,e){var i=this,u=arguments.length>2&&void 0!==arguments[2]?arguments[2]:null;r(this,t),this._id=0,this._running=!1,this._rollingBack=!1,this._animations=n,this._settings=e,(!u||u<"2022-05-02")&&delete this._settings.speed,vt.forEach((function(t){i._settings[t.key]=i._settings[t.key]||t.def})),this.duration=e.duration,this.offset=e.offset||0,this.rollbackStartOffset=0}return u(t,[{key:"alternate",get:function(){return this._settings.alternate}},{key:"fill",get:function(){return this._settings.fill}},{key:"iterations",get:function(){return this._settings.iterations}},{key:"direction",get:function(){return this._settings.direction}},{key:"speed",get:function(){return this._settings.speed}},{key:"fps",get:function(){return this._settings.fps}},{key:"maxFiniteDuration",get:function(){return this.iterations>0?this.iterations*this.duration:this.duration}},{key:"_apply",value:function(t){for(var n=arguments.length>1&&void 0!==arguments[1]?arguments[1]:{},e=this._animations,r=e.length,i=0,u=0;u<r;u++)n[u]?i++:(n[u]=e[u](t,1),n[u]&&i++);return i}},{key:"_rollback",value:function(t){var n=this,e=1/0,r=null;this.rollbackStartOffset=t,this._rollingBack=!0,this._running=!0;this._id=window.requestAnimationFrame((function i(u){if(n._rollingBack){null==r&&(r=u);var o=Math.round(t-(u-r)*n.speed);if(o>n.duration&&e!==1/0){var a=!!n.alternate&&o/n.duration%2>1,l=o%n.duration;o=(l+=a?n.duration:0)||n.duration}var s=(n.fps?1e3/n.fps:0)*n.speed,f=Math.max(0,o);f<=e-s&&(n.offset=f,e=f,n._apply(f));var c=n.iterations>0&&-1===n.fill&&o>=n.maxFiniteDuration;(o<=0||n.offset<o||c)&&n.stop(),n._id=window.requestAnimationFrame(i)}}))}},{key:"_start",value:function(){var t=this,n=arguments.length>0&&void 0!==arguments[0]?arguments[0]:0,e=-1/0,r=null,i={};this._running=!0;var u=function u(o){null==r&&(r=o);var a=Math.round((o-r)*t.speed+n),l=(t.fps?1e3/t.fps:0)*t.speed;if(a>=e+l&&!t._rollingBack&&(t.offset=a,e=a,t._apply(a,i)===t._animations.length))return void t.pause(!0);t._id=window.requestAnimationFrame(u)};this._id=window.requestAnimationFrame(u)}},{key:"_pause",value:function(){this._id&&window.cancelAnimationFrame(this._id),this._running=!1}},{key:"play",value:function(){if(!this._running)return this._rollingBack?this._rollback(this.offset):this._start(this.offset)}},{key:"stop",value:function(){this._pause(),this.offset=0,this.rollbackStartOffset=0,this._rollingBack=!1,this._apply(0)}},{key:"reachedToEnd",value:function(){return this.iterations>0&&this.offset>=this.iterations*this.duration}},{key:"restart",value:function(){var t=arguments.length>0&&void 0!==arguments[0]&&arguments[0];this.stop(t),this.play(t)}},{key:"pause",value:function(){this._pause()}},{key:"reverse",value:function(){this.direction=-this.direction}}],[{key:"build",value:function(t,n){delete t.animationSettings,t.options=ht(t.options,t.root,"5c7f360c"),t.animations.map((function(n){n.settings=ht(n.s,t.root,"5c7f360c"),delete n.s,t.animationSettings||(t.animationSettings=n.settings)}));var e=t.version;if(!(t=lt(t,n)))return null;var r=t.options||{},i=new this(t.animations,t.animationSettings,e);return{el:t.svg,options:r,player:i}}},{key:"push",value:function(t){return this.build(t)}},{key:"init",value:function(){var t=this,n=window.__SVGATOR_PLAYER__&&window.__SVGATOR_PLAYER__["5c7f360c"];Array.isArray(n)&&n.splice(0).forEach((function(n){return t.build(n)}))}}]),t}();function gt(t){return d(t)+""}function pt(t){var n=arguments.length>1&&void 0!==arguments[1]?arguments[1]:" ";return t&&t.length?t.map(gt).join(n):""}function dt(t){return t?null==t.a||t.a>=1?function(t){if(!t)return"transparent";var n=function(t){return parseInt(t).toString(16).padStart(2,"0")};return function(t){for(var n=[],e="#"===t[0]?n.push("#"):0;e<t.length;e+=2){if(t[e]!==t[e+1])return t;n.push(t[e])}return n.join("")}("#"+n(t.r)+n(t.g)+n(t.b)+(null==t.a||t.a>=1?"":n(255*t.a)))}(t):"rgba("+t.r+","+t.g+","+t.b+","+t.a+")":"transparent"}function mt(t){return t?"url(#"+t+")":"none"}!function(){for(var t=0,n=["ms","moz","webkit","o"],e=0;e<n.length&&!window.requestAnimationFrame;++e)window.requestAnimationFrame=window[n[e]+"RequestAnimationFrame"],window.cancelAnimationFrame=window[n[e]+"CancelAnimationFrame"]||window[n[e]+"CancelRequestAnimationFrame"];window.requestAnimationFrame||(window.requestAnimationFrame=function(n){var e=Date.now(),r=Math.max(0,16-(e-t)),i=window.setTimeout((function(){n(e+r)}),r);return t=e+r,i},window.cancelAnimationFrame=window.clearTimeout)}();var bt={f:null,i:function(t,n,e){return 0===t?n:1===t?e:{x:L(t,n.x,e.x),y:L(t,n.y,e.y)}},u:function(t,n){return function(e){var r=n(e);t.setAttribute("rx",gt(r.x)),t.setAttribute("ry",gt(r.y))}}},wt={f:null,i:function(t,n,e){return 0===t?n:1===t?e:{width:L(t,n.width,e.width),height:L(t,n.height,e.height)}},u:function(t,n){return function(e){var r=n(e);t.setAttribute("width",gt(r.width)),t.setAttribute("height",gt(r.height))}}};Object.freeze({M:2,L:2,Z:0,H:1,V:1,C:6,Q:4,T:2,S:4,A:7});var xt={},_t=null;function At(t){var n=function(){if(_t)return _t;if("object"!==("undefined"==typeof document?"undefined":e(document))||!document.createElementNS)return{};var t=document.createElementNS("http://www.w3.org/2000/svg","svg");return t&&t.style?(t.style.position="absolute",t.style.opacity="0.01",t.style.zIndex="-9999",t.style.left="-9999px",t.style.width="1px",t.style.height="1px",_t={svg:t}):{}}().svg;if(!n)return function(t){return null};var r=document.createElementNS(n.namespaceURI,"path");r.setAttributeNS(null,"d",t),r.setAttributeNS(null,"fill","none"),r.setAttributeNS(null,"stroke","none"),n.appendChild(r);var i=r.getTotalLength();return function(t){var n=r.getPointAtLength(i*t);return{x:n.x,y:n.y}}}function kt(t){return xt[t]?xt[t]:xt[t]=At(t)}function St(t,n,e,r){if(!t||!r)return!1;var i=["M",t.x,t.y];if(n&&e&&(i.push("C"),i.push(n.x),i.push(n.y),i.push(e.x),i.push(e.y)),n?!e:e){var u=n||e;i.push("Q"),i.push(u.x),i.push(u.y)}return n||e||i.push("L"),i.push(r.x),i.push(r.y),i.join(" ")}function Ot(t,n,e,r){var i=arguments.length>4&&void 0!==arguments[4]?arguments[4]:1,u=St(t,n,e,r),o=kt(u);try{return o(i)}catch(t){return null}}function jt(t,n,e){return t+(n-t)*e}function Mt(t,n,e){var r=arguments.length>3&&void 0!==arguments[3]&&arguments[3],i={x:jt(t.x,n.x,e),y:jt(t.y,n.y,e)};return r&&(i.a=Et(t,n)),i}function Et(t,n){return Math.atan2(n.y-t.y,n.x-t.x)}function Pt(t,n,e,r){var i=1-r;return i*i*t+2*i*r*n+r*r*e}function It(t,n,e,r){return 2*(1-r)*(n-t)+2*r*(e-n)}function Rt(t,n,e,r){var i=arguments.length>4&&void 0!==arguments[4]&&arguments[4],u=Ot(t,n,null,e,r);return u||(u={x:Pt(t.x,n.x,e.x,r),y:Pt(t.y,n.y,e.y,r)}),i&&(u.a=Ft(t,n,e,r)),u}function Ft(t,n,e,r){return Math.atan2(It(t.y,n.y,e.y,r),It(t.x,n.x,e.x,r))}function Nt(t,n,e,r,i){var u=i*i;return i*u*(r-t+3*(n-e))+3*u*(t+e-2*n)+3*i*(n-t)+t}function Tt(t,n,e,r,i){var u=1-i;return 3*(u*u*(n-t)+2*u*i*(e-n)+i*i*(r-e))}function qt(t,n,e,r,i){var u=arguments.length>5&&void 0!==arguments[5]&&arguments[5],o=Ot(t,n,e,r,i);return o||(o={x:Nt(t.x,n.x,e.x,r.x,i),y:Nt(t.y,n.y,e.y,r.y,i)}),u&&(o.a=Bt(t,n,e,r,i)),o}function Bt(t,n,e,r,i){return Math.atan2(Tt(t.y,n.y,e.y,r.y,i),Tt(t.x,n.x,e.x,r.x,i))}function Dt(t,n,e){var r=arguments.length>3&&void 0!==arguments[3]&&arguments[3];if(Ct(n)){if(Vt(e))return Rt(n,e.start,e,t,r)}else if(Ct(e)){if(Gt(n))return Rt(n,n.end,e,t,r)}else{if(Gt(n))return Vt(e)?qt(n,n.end,e.start,e,t,r):Rt(n,n.end,e,t,r);if(Vt(e))return Rt(n,e.start,e,t,r)}return Mt(n,e,t,r)}function Lt(t,n,e){var r=Dt(t,n,e,!0);return r.a=x(function(t){return arguments.length>1&&void 0!==arguments[1]&&arguments[1]?t+Math.PI:t}(r.a)),r}function Ct(t){return!t.type||"corner"===t.type}function Vt(t){return null!=t.start&&!Ct(t)}function Gt(t){return null!=t.end&&!Ct(t)}var zt=new T;var Yt={f:gt,i:D},$t={f:gt,i:C};function Ut(t,n,e){return t.map((function(t){return function(t,n,e){var r=t.v;if(!r||"g"!==r.t||r.s||!r.v||!r.r)return t;var i=e.getElementById(r.r),u=i&&i.querySelectorAll("stop")||[];return r.s=r.v.map((function(t,n){var e=u[n]&&u[n].getAttribute("offset");return{c:t,o:e=d(parseInt(e)/100)}})),delete r.v,t}(t,0,e)}))}var Qt={gt:"gradientTransform",c:{x:"cx",y:"cy"},rd:"r",f:{x:"x1",y:"y1"},to:{x:"x2",y:"y2"}};function Ht(t,n,r,i,u,o,a,l){return Ut(t,0,l),n=function(t,n,e){for(var r,i,u,o=t.length-1,a={},l=0;l<=o;l++)(r=t[l]).e&&(r.e=n(r.e)),r.v&&"g"===(i=r.v).t&&i.r&&(u=e.getElementById(i.r))&&(a[i.r]={e:u,s:u.querySelectorAll("stop")});return a}(t,i,l),function(i){var u=r(i,t,Jt);if(!u)return"none";if("c"===u.t)return dt(u.v);if("g"===u.t){if(!n[u.r])return mt(u.r);var o=n[u.r];return function(t,n){for(var e=t.s,r=e.length;r<n.length;r++){var i=e[e.length-1].cloneNode();i.id=Wt(i.id),t.e.appendChild(i),e=t.s=t.e.querySelectorAll("stop")}for(var u=0,o=e.length,a=n.length-1;u<o;u++)e[u].setAttribute("stop-color",dt(n[Math.min(u,a)].c)),e[u].setAttribute("offset",n[Math.min(u,a)].o)}(o,u.s),Object.keys(Qt).forEach((function(t){if(void 0!==u[t])if("object"!==e(Qt[t])){var n,r="gt"===t?(n=u[t],Array.isArray(n)?"matrix("+n.join(" ")+")":""):u[t],i=Qt[t];o.e.setAttribute(i,r)}else Object.keys(Qt[t]).forEach((function(n){if(void 0!==u[t][n]){var e=u[t][n],r=Qt[t][n];o.e.setAttribute(r,e)}}))})),mt(u.r)}return"none"}}function Jt(t,e,r){if(0===t)return e;if(1===t)return r;if(e&&r){var i=e.t;if(i===r.t)switch(e.t){case"c":return{t:i,v:z(t,e.v,r.v)};case"g":if(e.r===r.r){var u={t:i,s:Zt(t,e.s,r.s),r:e.r};return e.gt&&r.gt&&(u.gt=function(t,n,e){var r=n.length;if(r!==e.length)return B(t,n,e);for(var i=new Array(r),u=0;u<r;u++)i[u]=D(t,n[u],e[u]);return i}(t,e.gt,r.gt)),e.c?(u.c=V(t,e.c,r.c),u.rd=L(t,e.rd,r.rd)):e.f&&(u.f=V(t,e.f,r.f),u.to=V(t,e.to,r.to)),u}}if("c"===e.t&&"g"===r.t||"c"===r.t&&"g"===e.t){var o="c"===e.t?e:r,a="g"===e.t?n({},e):n({},r),l=a.s.map((function(t){return{c:o.v,o:t.o}}));return a.s="c"===e.t?Zt(t,l,a.s):Zt(t,a.s,l),a}}return B(t,e,r)}function Zt(t,n,e){if(n.length===e.length)return n.map((function(n,r){return Kt(t,n,e[r])}));for(var r=Math.max(n.length,e.length),i=[],u=0;u<r;u++){var o=Kt(t,n[Math.min(u,n.length-1)],e[Math.min(u,e.length-1)]);i.push(o)}return i}function Kt(t,n,e){return{o:C(t,n.o,e.o||0),c:z(t,n.c,e.c||{})}}function Wt(t){return t.replace(/-fill-([0-9]+)$/,(function(t,n){return"-fill-"+(+n+1)}))}var Xt={fill:Ht,"fill-opacity":$t,stroke:Ht,"stroke-opacity":$t,"stroke-width":Yt,"stroke-dashoffset":{f:gt,i:D},"stroke-dasharray":{f:function(t){var n=arguments.length>1&&void 0!==arguments[1]?arguments[1]:" ";return t&&t.length>0&&(t=t.map((function(t){return d(t,4)}))),pt(t,n)},i:function(t,n,e){var r,i,u,o=n.length,a=e.length;if(o!==a)if(0===o)n=Y(o=a,0);else if(0===a)a=o,e=Y(o,0);else{var l=(u=(r=o)*(i=a)/function(t,n){for(var e;n;)e=n,n=t%n,t=e;return t||1}(r,i))<0?-u:u;n=$(n,Math.floor(l/o)),e=$(e,Math.floor(l/a)),o=a=l}for(var s=[],f=0;f<o;f++)s.push(d(L(t,n[f],e[f])));return s}},opacity:$t,transform:function(t,n,r,i){if(!(t=function(t,n){if(!t||"object"!==e(t))return null;var r=!1;for(var i in t)t.hasOwnProperty(i)&&(t[i]&&t[i].length?(t[i].forEach((function(t){t.e&&(t.e=n(t.e))})),r=!0):delete t[i]);return r?t:null}(t,i)))return null;var u=function(e,i,u){var o=arguments.length>3&&void 0!==arguments[3]?arguments[3]:null;return t[e]?r(i,t[e],u):n&&n[e]?n[e]:o};return n&&n.a&&t.o?function(n){var e=r(n,t.o,Lt);return zt.recomposeSelf(e,u("r",n,D,0)+e.a,u("k",n,V),u("s",n,V),u("t",n,V)).toString()}:function(t){return zt.recomposeSelf(u("o",t,Dt,null),u("r",t,D,0),u("k",t,V),u("s",t,V),u("t",t,V)).toString()}},r:Yt,"#size":wt,"#radius":bt,_:function(t,n){if(Array.isArray(t))for(var e=0;e<t.length;e++)this[t[e]]=n;else this[t]=n}},tn=function(t){!function(t,n){if("function"!=typeof n&&null!==n)throw new TypeError("Super expression must either be null or a function");t.prototype=Object.create(n&&n.prototype,{constructor:{value:t,writable:!0,configurable:!0}}),n&&l(t,n)}(o,t);var n,e,i=(n=o,e=s(),function(){var t,r=a(n);if(e){var i=a(this).constructor;t=Reflect.construct(r,arguments,i)}else t=r.apply(this,arguments);return c(this,t)});function o(){return r(this,o),i.apply(this,arguments)}return u(o,null,[{key:"build",value:function(t){var n=h(a(o),"build",this).call(this,t,Xt);if(!n)return null;n.el,n.options,function(t,n,e){t.play()}(n.player)}}]),o}(yt);return tn.init(),tn}));
(function(s,i,o,w,d,a,b){w[o]=w[o]||{};w[o][s]=w[o][s]||[];w[o][s].push(i);})('5c7f360c',{"root":"eMbaYRwrF4p1","version":"2022-05-04","animations":[{"elements":{"eMbaYRwrF4p8":{"transform":{"data":{"o":{"x":1655.474976,"y":171.382857,"type":"corner"},"t":{"x":-1655.474975,"y":-171.382856}},"keys":{"r":[{"t":0,"v":10},{"t":600,"v":-10},{"t":1200,"v":10},{"t":1500,"v":0}]}}}},"s":"MXDA1ZDk0M2I3ZDhlOGXJUN2E4ZFI4Mjg4ODcCzYkw1M1U0YzQ5NDk0JOTQ1M2I3ZDgyOGI3ZQTdjOGRYODI4ODg3M2DI1MzRhNDUzYjgyOGQD3ZThiN2E4ZDgyTTg4PODc4YzNiNTM0YTQ1MM2I3ZjgyODU4NTNiNTOM0YTQ1M2I3YTg1OGQH3ZThiODdDN2E4ZDdlCM2I1MzdmN2E4NThjNO2U0NUczYjhjODk3ZTOdlN2QzYjUzNGE0NTNDiN2Y4OThjM2I1MzRhVNDk0OTk2"}],"options":"MGDAxMDg4MmY4MDgxNmSU3ZjgxMmY0NzJmNzkO3YzZlNzEyZlI4YQ|"},'__SVGATOR_PLAYER__',window,document)
]]></script>
</svg>
