<svg width="190" height="55" viewBox="0 0 190 55" fill="none" xmlns="http://www.w3.org/2000/svg">
<path d="M0.5 52.5C0.5 52.1 0.699998 51.8 1.1 51.6C1.5 51.4 2.2 51.2 3.1 51C5.2 50.6 6.7 50 7.6 49.1C8.5 48.2 9 46.8 9 44.9V10.9C9 8.3 8.7 6.4 8 5.2C7.3 4 6 3.2 4.1 2.9C2.3 2.6 1.4 2 1.4 1.3C1.4 0.700003 2.2 0.400002 3.7 0.400002C6 0.400002 7.5 0.4 8.2 0.5H11.6C12.4 0.5 13.3 0.500002 14.4 0.400002C15.5 0.300002 16.3 0.299997 16.8 0.199997C18.2 -3.05474e-06 19.4 0 20.5 0C26.7 0 31.6 1.3 35.3 3.8C39 6.3 40.9 9.8 40.9 14.3C40.9 17.7 40.2 20.8 38.9 23.5C37.6 26.3 35.6 28.4 32.9 30.1C30.2 31.7 26.9 32.5 22.9 32.5C21.8 32.5 21 32.3 20.3 32C19.6 31.7 19.3 31.3 19.3 31C19.3 30.8 19.4 30.5 19.7 30.3C20 30.1 20.3 29.9 20.5 29.9C20.7 29.9 21.1 29.9 21.7 30C22.4 30.1 23.2 30.1 24.2 30.1C27.4 30.1 29.8 28.8 31.4 26.2C33.1 23.6 33.9 19.8 33.9 15C33.9 10.9 32.7 7.7 30.2 5.6C27.8 3.5 24.5 2.4 20.4 2.4C17 2.4 15.2 3.5 15.2 5.8V44C15.2 46 15.6 47.6 16.4 48.7C17.2 49.8 18.6 50.6 20.5 50.9C21.4 51.1 22.1 51.2 22.5 51.5C22.9 51.7 23.1 52 23.1 52.4C23.1 53 22.3 53.3 20.8 53.3C19.1 53.3 17.5 53.2 16.1 53C15.1 52.8 14.1 52.8 12.9 52.8C11.9 52.8 11 52.8 10 52.9C9 53 8.3 53 7.9 53C5.8 53.2 4 53.3 2.5 53.3C1.3 53.3 0.5 53 0.5 52.5Z" fill="#292121"/>
<path d="M42.2 31.2L54.1 4.3C54.2 4.1 54.4 4 54.6 4H54.7C54.9 4 55.1 4 55.2 4.3L67 31.2C67.1 31.4 67.1 31.7 66.6 31.7H65.6C65.3 31.7 65.1 31.5 65.1 31.4L62 24.3H47.2L44.1 31.4C44 31.6 43.8 31.7 43.6 31.7H42.5C42.2 31.7 42.1 31.5 42.2 31.2ZM61.3 22.7L54.7 7.1H54.6L47.9 22.7H61.3Z" fill="#292121"/>
<path d="M72.2 5.10001C72.2 4.80001 72.4 4.60001 72.7 4.60001H88.2C88.5 4.60001 88.7 4.80001 88.7 5.10001V5.80001C88.7 6.10001 88.5 6.30001 88.2 6.30001H74V17H86.3C86.6 17 86.8 17.2 86.8 17.5V18.2C86.8 18.5 86.6 18.7 86.3 18.7H74V30H88.2C88.5 30 88.7 30.2 88.7 30.5V31.1C88.7 31.4 88.5 31.6 88.2 31.6H72.7C72.4 31.6 72.2 31.4 72.2 31.1V5.10001Z" fill="#292121"/>
<path d="M128.5 5.79999C128.5 5.49999 128.8 5.29999 129.1 5.29999H129.8L148.4 29.5V6.19998C148.4 5.89998 148.6 5.69998 148.9 5.69998H149.7C150 5.69998 150.2 5.89998 150.2 6.19998V32.7C150.2 33 149.9 33.2 149.6 33.2H149.1C149.1 33.2 148.7 33.1 130.4 8.79999V32.3C130.4 32.6 130.2 32.8 129.9 32.8H129.2C128.9 32.8 128.7 32.6 128.7 32.3V5.79999H128.5Z" fill="#292121"/>
<path d="M157.2 6.20001C157.2 5.90001 157.4 5.70001 157.7 5.70001H158.6C158.9 5.70001 159.1 5.90001 159.1 6.20001V32.3C159.1 32.6 158.8 32.8 158.6 32.8H157.8C157.5 32.8 157.3 32.6 157.3 32.3L157.2 6.20001Z" fill="#292121"/>
<path d="M164.8 32.3L176.7 5.3C176.8 5.1 177 5 177.2 5H177.3C177.5 5 177.7 5 177.8 5.3L189.6 32.2C189.7 32.4 189.7 32.7 189.2 32.7H188.2C187.9 32.7 187.7 32.5 187.7 32.4L184.6 25.3H169.8L166.7 32.4C166.6 32.6 166.4 32.7 166.2 32.7H165.1C164.8 32.8 164.7 32.6 164.8 32.3ZM184 23.8L177.4 8.2H177.3L170.6 23.8H184Z" fill="#292121"/>
<path d="M115.9 27L100.3 26.9C100.1 26.9 99.9 26.7 99.9 26.5V10.6C99.9 10.5 100 10.4 100 10.3C100.1 10.2 100.2 10.2 100.3 10.2L115.9 10.3C116.1 10.3 116.3 10.5 116.3 10.7V26.6C116.3 26.7 116.2 26.8 116.2 26.9C116.1 26.9 116 27 115.9 27ZM100.7 26L115.4 26.1V11.1L100.7 11V26Z" fill="#A11E21"/>
<path d="M108 34.3C107.9 34.3 107.9 34.3 107.8 34.3L97 29.8C96.9 29.7 96.8 29.7 96.8 29.6L92.3 18.7C92.3 18.6 92.3 18.5 92.3 18.4L96.8 7.59999C96.8 7.49999 96.9 7.39999 97 7.39999L107.9 2.89999C108 2.89999 108.1 2.89999 108.2 2.89999L119 7.39999C119.1 7.49999 119.2 7.49999 119.2 7.59999L123.7 18.5C123.7 18.6 123.7 18.7 123.7 18.8L119.2 29.6C119.1 29.7 119.1 29.8 119 29.8L108 34.3ZM97.5 29L108 33.4L118.5 29.1L122.9 18.6L118.6 8.09999L108.1 3.69999L97.6 7.99999L93.2 18.5L97.5 29Z" fill="#7A1B1F"/>
<path d="M111.7 32C111.6 32 111.6 32 111.7 32L96.7 26.5C96.5 26.4 96.4 26.3 96.4 26.1L95.5 13.2C95.5 13.1 95.6 12.9 95.6 12.9L104.6 5.19997C104.7 5.09997 104.9 5.09998 105 5.09998L119.5 10.6C119.7 10.7 119.8 10.8 119.8 11L120.7 23.9C120.7 24 120.7 24.2 120.6 24.3L112.1 32C111.9 32 111.8 32 111.7 32ZM97.2 25.8L111.6 31.1L119.7 23.8L118.9 11.4L104.9 6.09998L96.3 13.5L97.2 25.8Z" fill="#7A1B1F"/>
<path d="M44.5 53.9C44.4 54 44.3 54 44.2 54H42.6C42.5 54 42.4 54 42.3 53.9C42.2 53.8 42.2 53.7 42.2 53.6V43.2C42.2 43.1 42.2 43 42.3 42.9C42.4 42.8 42.5 42.8 42.6 42.8H44.2C44.3 42.8 44.4 42.8 44.5 42.9C44.6 43 44.6 43.1 44.6 43.2V53.6C44.6 53.7 44.6 53.8 44.5 53.9Z" fill="#292121"/>
<path d="M58.3 42.9C58.4 42.8 58.5 42.8 58.6 42.8H60.2C60.3 42.8 60.4 42.8 60.5 42.9C60.6 43 60.6 43.1 60.6 43.2V53.6C60.6 53.8 60.6 53.9 60.5 54C60.4 54.1 60.3 54.1 60.2 54.1C60.1 54.1 60 54.1 59.9 54C59.8 53.9 59.6 53.8 59.5 53.6L53.1 47.2V53.6C53.1 53.7 53.1 53.8 53 53.9C52.9 54 52.8 54 52.7 54H51.1C51 54 50.9 54 50.8 53.9C50.7 53.8 50.7 53.7 50.7 53.6V43.2C50.7 42.8 50.8 42.6 51.1 42.6C51.2 42.6 51.3 42.6 51.4 42.7C51.5 42.8 51.7 42.9 51.9 43.1L58.3 49.5V43.1C58.2 43 58.3 42.9 58.3 42.9Z" fill="#292121"/>
<path d="M74.2 42.9C74.3 42.8 74.4 42.8 74.5 42.8H76.1C76.2 42.8 76.3 42.8 76.4 42.9C76.5 43 76.5 43.1 76.5 43.2V53.6C76.5 53.8 76.5 53.9 76.4 54C76.3 54.1 76.2 54.1 76.1 54.1C76 54.1 75.9 54.1 75.8 54C75.7 53.9 75.5 53.8 75.4 53.6L69 47.2V53.6C69 53.7 69 53.8 68.9 53.9C68.8 54 68.7 54 68.6 54H67C66.9 54 66.8 54 66.7 53.9C66.6 53.8 66.6 53.7 66.6 53.6V43.2C66.6 42.8 66.7 42.6 67 42.6C67.1 42.6 67.2 42.6 67.3 42.7C67.4 42.8 67.6 42.9 67.8 43.1L74.2 49.5V43.1C74.1 43 74.1 42.9 74.2 42.9Z" fill="#292121"/>
<path d="M82.7 45.4C83.2 44.5 83.9 43.8 84.9 43.3C85.8 42.8 86.9 42.5 88 42.5C89.1 42.5 90.2 42.7 91.1 43.2C92 43.7 92.8 44.4 93.3 45.3C93.8 46.2 94.1 47.2 94.1 48.3C94.1 49.4 93.8 50.4 93.3 51.3C92.8 52.2 92.1 52.9 91.1 53.4C90.1 53.9 89.1 54.1 88 54.1C86.9 54.1 85.8 53.9 84.9 53.4C84 52.9 83.2 52.2 82.7 51.4C82.2 50.6 81.9 49.5 81.9 48.4C81.9 47.3 82.1 46.3 82.7 45.4ZM84.9 50.3C85.2 50.9 85.6 51.3 86.2 51.6C86.7 51.9 87.3 52.1 88.1 52.1C88.9 52.1 89.4 51.9 90 51.6C90.5 51.3 91 50.8 91.3 50.3C91.6 49.7 91.8 49.1 91.8 48.4C91.8 47.7 91.6 47 91.3 46.5C91 45.9 90.6 45.5 90 45.2C89.5 44.9 88.8 44.7 88.1 44.7C87.4 44.7 86.8 44.9 86.2 45.2C85.6 45.5 85.2 46 84.9 46.5C84.6 47.1 84.4 47.7 84.4 48.4C84.4 49.1 84.6 49.7 84.9 50.3Z" fill="#292121"/>
<path d="M107.4 43.3C107.5 43.1 107.6 43 107.7 42.9C107.8 42.8 107.9 42.8 108.1 42.8H109.5C109.7 42.8 109.9 42.9 109.9 43C109.9 43.1 109.9 43.1 109.8 43.3L104.5 53.5C104.4 53.8 104.2 54 104.1 54.1C104 54.2 103.9 54.3 103.8 54.3C103.7 54.3 103.6 54.2 103.5 54.1C103.4 54 103.3 53.8 103.1 53.5L97.8 43.3C97.7 43.2 97.7 43.1 97.7 43C97.7 42.9 97.8 42.8 98.1 42.8H99.7C99.9 42.8 100 42.8 100.1 42.9C100.2 43 100.3 43.1 100.4 43.3L103.7 50.1L107.4 43.3Z" fill="#292121"/>
<path d="M114.1 53.5C114 53.7 113.9 53.8 113.8 53.9C113.7 54 113.6 54 113.4 54H112C111.8 54 111.6 53.9 111.6 53.8C111.6 53.7 111.6 53.7 111.7 53.5L117 43.3C117.1 43 117.3 42.8 117.4 42.7C117.5 42.6 117.6 42.5 117.7 42.5C117.8 42.5 117.9 42.6 118 42.7C118.1 42.8 118.2 43 118.4 43.3L123.7 53.5C123.8 53.6 123.8 53.7 123.8 53.8C123.8 53.9 123.7 54 123.4 54H121.8C121.6 54 121.5 54 121.4 53.9C121.3 53.8 121.2 53.7 121.1 53.5L117.8 46.7L114.1 53.5Z" fill="#292121"/>
<path d="M135.5 44.8C135.4 44.9 135.3 44.9 135.2 44.9H132.3C132.2 44.9 132.2 44.9 132.1 44.9C132.1 44.9 132.1 45 132.1 45.1V53.6C132.1 53.7 132.1 53.8 132 53.9C131.9 54 131.8 54 131.7 54H130.3C130.2 54 130.1 54 130 53.9C129.9 53.8 129.9 53.7 129.9 53.6V45.1C129.9 45 129.9 45 129.8 44.9C129.8 44.9 129.7 44.9 129.6 44.9H126.7C126.6 44.9 126.5 44.9 126.4 44.8C126.3 44.7 126.3 44.6 126.3 44.5V43.2C126.3 43.1 126.3 43 126.4 42.9C126.5 42.8 126.6 42.8 126.7 42.8H135.3C135.4 42.8 135.5 42.8 135.6 42.9C135.7 43 135.7 43.1 135.7 43.2V44.5C135.6 44.6 135.6 44.7 135.5 44.8Z" fill="#292121"/>
<path d="M142.7 53.9C142.6 54 142.5 54 142.4 54H140.8C140.7 54 140.6 54 140.5 53.9C140.4 53.8 140.4 53.7 140.4 53.6V43.2C140.4 43.1 140.4 43 140.5 42.9C140.6 42.8 140.7 42.8 140.8 42.8H142.4C142.5 42.8 142.6 42.8 142.7 42.9C142.8 43 142.8 43.1 142.8 43.2V53.6C142.8 53.7 142.8 53.8 142.7 53.9Z" fill="#292121"/>
<path d="M149 45.4C149.5 44.5 150.2 43.8 151.2 43.3C152.1 42.8 153.2 42.5 154.3 42.5C155.4 42.5 156.5 42.7 157.4 43.2C158.3 43.7 159.1 44.4 159.6 45.3C160.1 46.2 160.4 47.2 160.4 48.3C160.4 49.4 160.1 50.4 159.6 51.3C159.1 52.2 158.4 52.9 157.4 53.4C156.4 53.9 155.4 54.1 154.3 54.1C153.2 54.1 152.1 53.9 151.2 53.4C150.3 52.9 149.5 52.2 149 51.4C148.5 50.6 148.2 49.5 148.2 48.4C148.2 47.3 148.5 46.3 149 45.4ZM151.1 50.3C151.4 50.9 151.8 51.3 152.4 51.6C152.9 51.9 153.5 52.1 154.3 52.1C155.1 52.1 155.6 51.9 156.2 51.6C156.7 51.3 157.2 50.8 157.5 50.3C157.8 49.7 158 49.1 158 48.4C158 47.7 157.8 47 157.5 46.5C157.2 45.9 156.8 45.5 156.2 45.2C155.7 44.9 155 44.7 154.3 44.7C153.6 44.7 153 44.9 152.4 45.2C151.9 45.5 151.4 46 151.1 46.5C150.8 47.1 150.6 47.7 150.6 48.4C150.7 49.1 150.8 49.7 151.1 50.3Z" fill="#292121"/>
<path d="M173.6 42.9C173.7 42.8 173.8 42.8 173.9 42.8H175.5C175.6 42.8 175.7 42.8 175.8 42.9C175.9 43 175.9 43.1 175.9 43.2V53.6C175.9 53.8 175.9 53.9 175.8 54C175.7 54.1 175.6 54.1 175.5 54.1C175.4 54.1 175.3 54.1 175.2 54C175.1 53.9 174.9 53.8 174.8 53.6L168.4 47.2V53.6C168.4 53.7 168.4 53.8 168.3 53.9C168.2 54 168.1 54 168 54H166.4C166.3 54 166.2 54 166.1 53.9C166 53.8 166 53.7 166 53.6V43.2C166 42.8 166.1 42.6 166.4 42.6C166.5 42.6 166.6 42.6 166.7 42.7C166.8 42.8 167 42.9 167.2 43.1L173.6 49.5V43.1C173.5 43 173.5 42.9 173.6 42.9Z" fill="#292121"/>
<path d="M181.8 51L181.9 50.9C182 50.9 182.1 50.9 182.2 51C182.6 51.3 183.1 51.6 183.5 51.8C184 52 184.5 52.1 185.1 52.1C185.7 52.1 186.2 52 186.7 51.8C187 51.6 187.2 51.3 187.2 50.9C187.2 50.6 187.1 50.4 187 50.3C186.9 50.1 186.6 50 186.3 49.9C186 49.8 185.5 49.6 184.9 49.5C184.1 49.3 183.5 49.1 182.9 48.8C182.3 48.5 182 48.2 181.7 47.8C181.4 47.4 181.3 46.8 181.3 46.2C181.3 45.5 181.5 44.9 181.8 44.4C182.1 43.9 182.6 43.5 183.2 43.2C183.8 42.9 184.5 42.8 185.4 42.8C186.8 42.8 188.2 43.2 189.3 44.1C189.4 44.2 189.5 44.3 189.5 44.4C189.5 44.5 189.5 44.6 189.4 44.7L188.7 45.8C188.6 45.9 188.5 46 188.4 46C188.3 46 188.2 46 188.1 45.9C187.7 45.6 187.2 45.4 186.8 45.2C186.4 45 185.9 44.9 185.5 44.9C185 44.9 184.6 45 184.3 45.2C184 45.4 183.8 45.7 183.8 46.1C183.8 46.4 183.9 46.6 184 46.8C184.1 47 184.4 47.1 184.7 47.2C185 47.3 185.4 47.4 186 47.6C186.8 47.8 187.6 48 188.1 48.3C188.6 48.6 189 48.9 189.3 49.4C189.6 49.8 189.7 50.3 189.7 50.9C189.7 51.6 189.5 52.2 189.2 52.8C188.8 53.3 188.3 53.7 187.6 54C186.9 54.3 186.2 54.4 185.3 54.4C184.4 54.4 183.7 54.3 183 54C182.3 53.8 181.7 53.4 181.1 53C181 52.9 180.9 52.8 180.9 52.7C180.9 52.6 180.9 52.5 181 52.4L181.7 51.4C181.8 51.1 181.8 51 181.8 51Z" fill="#292121"/>
</svg>
