<?xml version="1.0" encoding="utf-8"?>
<!-- Generator: Adobe Illustrator 26.0.3, SVG Export Plug-In . SVG Version: 6.00 Build 0)  -->
<svg version="1.1" id="Layer_1" xmlns="http://www.w3.org/2000/svg" xmlns:xlink="http://www.w3.org/1999/xlink" x="0px" y="0px"
	 viewBox="0 0 340.2 240.5" style="enable-background:new 0 0 340.2 240.5;" xml:space="preserve">
<style type="text/css">
	.st0{fill:#292121;}
	.st1{fill:#A11E21;}
	.st2{fill:#7A1B1F;}
</style>
<path class="st0" d="M75.5,145.5c0-0.4,0.2-0.7,0.6-0.9s1.1-0.4,2-0.6c2.1-0.4,3.6-1,4.5-1.9s1.4-2.3,1.4-4.2v-34
	c0-2.6-0.3-4.5-1-5.7s-2-2-3.9-2.3c-1.8-0.3-2.7-0.9-2.7-1.6c0-0.6,0.8-0.9,2.3-0.9c2.3,0,3.8,0,4.5,0.1h3.4c0.8,0,1.7,0,2.8-0.1
	c1.1-0.1,1.9-0.1,2.4-0.2c1.4-0.2,2.6-0.2,3.7-0.2c6.2,0,11.1,1.3,14.8,3.8c3.7,2.5,5.6,6,5.6,10.5c0,3.4-0.7,6.5-2,9.2
	c-1.3,2.8-3.3,4.9-6,6.6c-2.7,1.6-6,2.4-10,2.4c-1.1,0-1.9-0.2-2.6-0.5s-1-0.7-1-1c0-0.2,0.1-0.5,0.4-0.7s0.6-0.4,0.8-0.4
	c0.2,0,0.6,0,1.2,0.1c0.7,0.1,1.5,0.1,2.5,0.1c3.2,0,5.6-1.3,7.2-3.9c1.7-2.6,2.5-6.4,2.5-11.2c0-4.1-1.2-7.3-3.7-9.4
	c-2.4-2.1-5.7-3.2-9.8-3.2c-3.4,0-5.2,1.1-5.2,3.4V137c0,2,0.4,3.6,1.2,4.7s2.2,1.9,4.1,2.2c0.9,0.2,1.6,0.3,2,0.6
	c0.4,0.2,0.6,0.5,0.6,0.9c0,0.6-0.8,0.9-2.3,0.9c-1.7,0-3.3-0.1-4.7-0.3c-1-0.2-2-0.2-3.2-0.2c-1,0-1.9,0-2.9,0.1s-1.7,0.1-2.1,0.1
	c-2.1,0.2-3.9,0.3-5.4,0.3C76.3,146.3,75.5,146,75.5,145.5L75.5,145.5z"/>
<g>
	<g>
		<path class="st0" d="M117.2,124.2l11.9-26.9c0.1-0.2,0.3-0.3,0.5-0.3h0.1c0.2,0,0.4,0,0.5,0.3l11.8,26.9c0.1,0.2,0.1,0.5-0.4,0.5
			h-1c-0.3,0-0.5-0.2-0.5-0.3l-3.1-7.1h-14.8l-3.1,7.1c-0.1,0.2-0.3,0.3-0.5,0.3h-1.1C117.2,124.7,117.1,124.5,117.2,124.2z
			 M136.3,115.7l-6.6-15.6h-0.1l-6.7,15.6H136.3z"/>
		<path class="st0" d="M147.2,98.1c0-0.3,0.2-0.5,0.5-0.5h15.5c0.3,0,0.5,0.2,0.5,0.5v0.7c0,0.3-0.2,0.5-0.5,0.5H149V110h12.3
			c0.3,0,0.5,0.2,0.5,0.5v0.7c0,0.3-0.2,0.5-0.5,0.5H149V123h14.2c0.3,0,0.5,0.2,0.5,0.5v0.6c0,0.3-0.2,0.5-0.5,0.5h-15.5
			c-0.3,0-0.5-0.2-0.5-0.5V98.1L147.2,98.1z"/>
	</g>
	<g>
		<path class="st0" d="M203.5,98.8c0-0.3,0.3-0.5,0.6-0.5h0.7l18.6,24.2l0,0V99.2c0-0.3,0.2-0.5,0.5-0.5h0.8c0.3,0,0.5,0.2,0.5,0.5
			v26.5c0,0.3-0.3,0.5-0.6,0.5h-0.5c0,0-0.4-0.1-18.7-24.4l0,0v23.5c0,0.3-0.2,0.5-0.5,0.5h-0.7c-0.3,0-0.5-0.2-0.5-0.5V98.8H203.5z
			"/>
		<path class="st0" d="M232.2,99.2c0-0.3,0.2-0.5,0.5-0.5h0.9c0.3,0,0.5,0.2,0.5,0.5v26.1c0,0.3-0.3,0.5-0.5,0.5h-0.8
			c-0.3,0-0.5-0.2-0.5-0.5L232.2,99.2L232.2,99.2z"/>
		<path class="st0" d="M239.8,125.3l11.9-27c0.1-0.2,0.3-0.3,0.5-0.3h0.1c0.2,0,0.4,0,0.5,0.3l11.8,26.9c0.1,0.2,0.1,0.5-0.4,0.5h-1
			c-0.3,0-0.5-0.2-0.5-0.3l-3.1-7.1h-14.8l-3.1,7.1c-0.1,0.2-0.3,0.3-0.5,0.3h-1.1C239.8,125.8,239.7,125.6,239.8,125.3L239.8,125.3
			z M259,116.8l-6.6-15.6h-0.1l-6.7,15.6H259z"/>
	</g>
	<g>
		<path class="st1" d="M190.9,120L190.9,120l-15.6-0.1c-0.2,0-0.4-0.2-0.4-0.4v-15.9c0-0.1,0.1-0.2,0.1-0.3c0.1-0.1,0.2-0.1,0.3-0.1
			l15.6,0.1c0.2,0,0.4,0.2,0.4,0.4v15.9c0,0.1-0.1,0.2-0.1,0.3C191.1,119.9,191,120,190.9,120z M175.7,119l14.7,0.1v-15l-14.7-0.1
			V119z"/>
		<path class="st2" d="M183,127.3c-0.1,0-0.1,0-0.2,0l-10.8-4.5c-0.1-0.1-0.2-0.1-0.2-0.2l-4.5-10.9c0-0.1,0-0.2,0-0.3l4.5-10.8
			c0-0.1,0.1-0.2,0.2-0.2l10.9-4.5c0.1,0,0.2,0,0.3,0l10.8,4.5c0.1,0.1,0.2,0.1,0.2,0.2l4.5,10.9c0,0.1,0,0.2,0,0.3l-4.5,10.8
			c-0.1,0.1-0.1,0.2-0.2,0.2L183,127.3L183,127.3z M172.5,122l10.5,4.4l10.5-4.3l4.4-10.5l-4.3-10.5l-10.5-4.4l-10.5,4.3l-4.4,10.5
			L172.5,122L172.5,122z"/>
		<path class="st2" d="M186.7,125C186.6,125,186.6,125,186.7,125l-15-5.5c-0.2-0.1-0.3-0.2-0.3-0.4l-0.9-12.9c0-0.1,0.1-0.3,0.1-0.3
			l9-7.7c0.1-0.1,0.3-0.1,0.4-0.1l14.5,5.5c0.2,0.1,0.3,0.2,0.3,0.4l0.9,12.9c0,0.1,0,0.3-0.1,0.4l-8.5,7.7
			C186.9,125,186.8,125,186.7,125L186.7,125z M172.2,118.8l14.4,5.3l8.1-7.3l-0.8-12.4l-14-5.3l-8.6,7.4L172.2,118.8L172.2,118.8z"
			/>
	</g>
</g>
<g>
	<path class="st0" d="M119.5,146.9c-0.1,0.1-0.2,0.1-0.3,0.1h-1.6c-0.1,0-0.2,0-0.3-0.1s-0.1-0.2-0.1-0.3v-10.4c0-0.1,0-0.2,0.1-0.3
		s0.2-0.1,0.3-0.1h1.6c0.1,0,0.2,0,0.3,0.1s0.1,0.2,0.1,0.3v10.4C119.6,146.7,119.6,146.8,119.5,146.9z"/>
	<path class="st0" d="M133.3,135.9c0.1-0.1,0.2-0.1,0.3-0.1h1.6c0.1,0,0.2,0,0.3,0.1s0.1,0.2,0.1,0.3v10.4c0,0.2,0,0.3-0.1,0.4
		s-0.2,0.1-0.3,0.1s-0.2,0-0.3-0.1s-0.3-0.2-0.4-0.4l-6.4-6.4v6.4c0,0.1,0,0.2-0.1,0.3c-0.1,0.1-0.2,0.1-0.3,0.1h-1.6
		c-0.1,0-0.2,0-0.3-0.1c-0.1-0.1-0.1-0.2-0.1-0.3v-10.4c0-0.4,0.1-0.6,0.4-0.6c0.1,0,0.2,0,0.3,0.1c0.1,0.1,0.3,0.2,0.5,0.4l6.4,6.4
		v-6.4C133.2,136,133.3,135.9,133.3,135.9z"/>
	<path class="st0" d="M149.2,135.9c0.1-0.1,0.2-0.1,0.3-0.1h1.6c0.1,0,0.2,0,0.3,0.1s0.1,0.2,0.1,0.3v10.4c0,0.2,0,0.3-0.1,0.4
		s-0.2,0.1-0.3,0.1s-0.2,0-0.3-0.1s-0.3-0.2-0.4-0.4l-6.4-6.4v6.4c0,0.1,0,0.2-0.1,0.3c-0.1,0.1-0.2,0.1-0.3,0.1h-1.6
		c-0.1,0-0.2,0-0.3-0.1c-0.1-0.1-0.1-0.2-0.1-0.3v-10.4c0-0.4,0.1-0.6,0.4-0.6c0.1,0,0.2,0,0.3,0.1s0.3,0.2,0.5,0.4l6.4,6.4v-6.4
		C149.1,136,149.1,135.9,149.2,135.9z"/>
	<path class="st0" d="M157.7,138.4c0.5-0.9,1.2-1.6,2.2-2.1c0.9-0.5,2-0.8,3.1-0.8c1.1,0,2.2,0.2,3.1,0.7c0.9,0.5,1.7,1.2,2.2,2.1
		c0.5,0.9,0.8,1.9,0.8,3s-0.3,2.1-0.8,3c-0.5,0.9-1.2,1.6-2.2,2.1c-1,0.5-2,0.7-3.1,0.7c-1.1,0-2.2-0.2-3.1-0.7s-1.7-1.2-2.2-2
		s-0.8-1.9-0.8-3C156.9,140.3,157.1,139.3,157.7,138.4z M159.9,143.3c0.3,0.6,0.7,1,1.3,1.3c0.5,0.3,1.1,0.5,1.9,0.5
		c0.8,0,1.3-0.2,1.9-0.5c0.5-0.3,1-0.8,1.3-1.3c0.3-0.6,0.5-1.2,0.5-1.9s-0.2-1.4-0.5-1.9c-0.3-0.6-0.7-1-1.3-1.3
		c-0.5-0.3-1.2-0.5-1.9-0.5s-1.3,0.2-1.9,0.5c-0.6,0.3-1,0.8-1.3,1.3c-0.3,0.6-0.5,1.2-0.5,1.9S159.6,142.7,159.9,143.3z"/>
	<path class="st0" d="M182.4,136.3c0.1-0.2,0.2-0.3,0.3-0.4s0.2-0.1,0.4-0.1h1.4c0.2,0,0.4,0.1,0.4,0.2c0,0.1,0,0.1-0.1,0.3
		l-5.3,10.2c-0.1,0.3-0.3,0.5-0.4,0.6c-0.1,0.1-0.2,0.2-0.3,0.2s-0.2-0.1-0.3-0.2c-0.1-0.1-0.2-0.3-0.4-0.6l-5.3-10.2
		c-0.1-0.1-0.1-0.2-0.1-0.3s0.1-0.2,0.4-0.2h1.6c0.2,0,0.3,0,0.4,0.1c0.1,0.1,0.2,0.2,0.3,0.4l3.3,6.8L182.4,136.3z"/>
	<path class="st0" d="M189.1,146.5c-0.1,0.2-0.2,0.3-0.3,0.4c-0.1,0.1-0.2,0.1-0.4,0.1H187c-0.2,0-0.4-0.1-0.4-0.2
		c0-0.1,0-0.1,0.1-0.3l5.3-10.2c0.1-0.3,0.3-0.5,0.4-0.6s0.2-0.2,0.3-0.2c0.1,0,0.2,0.1,0.3,0.2c0.1,0.1,0.2,0.3,0.4,0.6l5.3,10.2
		c0.1,0.1,0.1,0.2,0.1,0.3s-0.1,0.2-0.4,0.2h-1.6c-0.2,0-0.3,0-0.4-0.1s-0.2-0.2-0.3-0.4l-3.3-6.8L189.1,146.5z"/>
	<path class="st0" d="M210.5,137.8c-0.1,0.1-0.2,0.1-0.3,0.1h-2.9c-0.1,0-0.1,0-0.2,0c0,0,0,0.1,0,0.2v8.5c0,0.1,0,0.2-0.1,0.3
		s-0.2,0.1-0.3,0.1h-1.4c-0.1,0-0.2,0-0.3-0.1s-0.1-0.2-0.1-0.3v-8.5c0-0.1,0-0.1-0.1-0.2c0,0-0.1,0-0.2,0h-2.9
		c-0.1,0-0.2,0-0.3-0.1s-0.1-0.2-0.1-0.3v-1.3c0-0.1,0-0.2,0.1-0.3s0.2-0.1,0.3-0.1h8.6c0.1,0,0.2,0,0.3,0.1
		c0.1,0.1,0.1,0.2,0.1,0.3v1.3C210.6,137.6,210.6,137.7,210.5,137.8z"/>
	<path class="st0" d="M217.7,146.9c-0.1,0.1-0.2,0.1-0.3,0.1h-1.6c-0.1,0-0.2,0-0.3-0.1s-0.1-0.2-0.1-0.3v-10.4c0-0.1,0-0.2,0.1-0.3
		s0.2-0.1,0.3-0.1h1.6c0.1,0,0.2,0,0.3,0.1s0.1,0.2,0.1,0.3v10.4C217.8,146.7,217.8,146.8,217.7,146.9z"/>
	<path class="st0" d="M224,138.4c0.5-0.9,1.2-1.6,2.2-2.1c0.9-0.5,2-0.8,3.1-0.8c1.1,0,2.2,0.2,3.1,0.7c0.9,0.5,1.7,1.2,2.2,2.1
		c0.5,0.9,0.8,1.9,0.8,3s-0.3,2.1-0.8,3c-0.5,0.9-1.2,1.6-2.2,2.1c-1,0.5-2,0.7-3.1,0.7c-1.1,0-2.2-0.2-3.1-0.7
		c-0.9-0.5-1.7-1.2-2.2-2c-0.5-0.8-0.8-1.9-0.8-3C223.2,140.3,223.5,139.3,224,138.4z M226.1,143.3c0.3,0.6,0.7,1,1.3,1.3
		c0.5,0.3,1.1,0.5,1.9,0.5s1.3-0.2,1.9-0.5c0.5-0.3,1-0.8,1.3-1.3c0.3-0.6,0.5-1.2,0.5-1.9s-0.2-1.4-0.5-1.9c-0.3-0.6-0.7-1-1.3-1.3
		c-0.5-0.3-1.2-0.5-1.9-0.5s-1.3,0.2-1.9,0.5c-0.5,0.3-1,0.8-1.3,1.3c-0.3,0.6-0.5,1.2-0.5,1.9C225.7,142.1,225.8,142.7,226.1,143.3
		z"/>
	<path class="st0" d="M248.6,135.9c0.1-0.1,0.2-0.1,0.3-0.1h1.6c0.1,0,0.2,0,0.3,0.1s0.1,0.2,0.1,0.3v10.4c0,0.2,0,0.3-0.1,0.4
		c-0.1,0.1-0.2,0.1-0.3,0.1s-0.2,0-0.3-0.1s-0.3-0.2-0.4-0.4l-6.4-6.4v6.4c0,0.1,0,0.2-0.1,0.3s-0.2,0.1-0.3,0.1h-1.6
		c-0.1,0-0.2,0-0.3-0.1s-0.1-0.2-0.1-0.3v-10.4c0-0.4,0.1-0.6,0.4-0.6c0.1,0,0.2,0,0.3,0.1s0.3,0.2,0.5,0.4l6.4,6.4v-6.4
		C248.5,136,248.5,135.9,248.6,135.9z"/>
	<path class="st0" d="M256.8,144l0.1-0.1c0.1,0,0.2,0,0.3,0.1c0.4,0.3,0.9,0.6,1.3,0.8c0.5,0.2,1,0.3,1.6,0.3s1.1-0.1,1.6-0.3
		c0.3-0.2,0.5-0.5,0.5-0.9c0-0.3-0.1-0.5-0.2-0.6c-0.1-0.2-0.4-0.3-0.7-0.4c-0.3-0.1-0.8-0.3-1.4-0.4c-0.8-0.2-1.4-0.4-2-0.7
		c-0.6-0.3-0.9-0.6-1.2-1s-0.4-1-0.4-1.6c0-0.7,0.2-1.3,0.5-1.8s0.8-0.9,1.4-1.2c0.6-0.3,1.3-0.4,2.2-0.4c1.4,0,2.8,0.4,3.9,1.3
		c0.1,0.1,0.2,0.2,0.2,0.3s0,0.2-0.1,0.3l-0.7,1.1c-0.1,0.1-0.2,0.2-0.3,0.2s-0.2,0-0.3-0.1c-0.4-0.3-0.9-0.5-1.3-0.7
		s-0.9-0.3-1.3-0.3c-0.5,0-0.9,0.1-1.2,0.3s-0.5,0.5-0.5,0.9c0,0.3,0.1,0.5,0.2,0.7s0.4,0.3,0.7,0.4c0.3,0.1,0.7,0.2,1.3,0.4
		c0.8,0.2,1.6,0.4,2.1,0.7s0.9,0.6,1.2,1.1c0.3,0.4,0.4,0.9,0.4,1.5c0,0.7-0.2,1.3-0.5,1.9c-0.4,0.5-0.9,0.9-1.6,1.2
		c-0.7,0.3-1.4,0.4-2.3,0.4s-1.6-0.1-2.3-0.4c-0.7-0.2-1.3-0.6-1.9-1c-0.1-0.1-0.2-0.2-0.2-0.3s0-0.2,0.1-0.3l0.7-1
		C256.8,144.1,256.8,144,256.8,144z"/>
</g>
</svg>
